<?xml version="1.0" encoding="utf-8"?>
<!-- Generator: Adobe Illustrator 17.0.0, SVG Export Plug-In . SVG Version: 6.00 Build 0)  -->
<!DOCTYPE svg PUBLIC "-//W3C//DTD SVG 1.1//EN" "http://www.w3.org/Graphics/SVG/1.1/DTD/svg11.dtd">
<svg version="1.1" id="Layer_1" xmlns="http://www.w3.org/2000/svg" xmlns:xlink="http://www.w3.org/1999/xlink" x="0px" y="0px"
	 width="179.351px" height="66.296px" viewBox="0 0 179.351 66.296" enable-background="new 0 0 179.351 66.296"
	 xml:space="preserve">
<g>
	<defs>
		<rect id="SVGID_1_" y="0" width="179.351" height="66.296"/>
	</defs>
	<clipPath id="SVGID_2_">
		<use xlink:href="#SVGID_1_"  overflow="visible"/>
	</clipPath>
	<path clip-path="url(#SVGID_2_)" fill="#B93544" d="M16.523,23.109c0,3.032,3.975,3.137,6.275,3.137s5.332-0.836,5.332-3.137V9.308
		c0-4.394-2.09-5.336-5.542-5.336c-4.287,0-6.065,0.942-6.065,5.336V23.109z M9.201,47.681v0.106
		c-4.913,10.457,3.349,15.79,12.027,15.79c8.157,0,21.436-2.716,21.436-13.174c0-2.722-3.346-2.722-5.332-2.722H9.201z
		 M37.333,34.298c7.216,0,9.515,5.647,9.515,12.025c0,14.326-13.804,19.973-26.14,19.973C14.535,66.296,0,63.368,0,55.317
		c0-3.243,2.093-6.169,6.695-8.262C2.825,44.965,0,41.304,0,36.807c0-6.484,4.079-9.412,9.832-10.979
		c-4.915-2.719-7.113-6.275-7.113-10.562c0-5.751,7.007-14.012,19.661-14.012c5.331,0,10.664,1.568,15.058,4.707
		C39.632,3.136,41.304,0,45.279,0c2.508,0,4.496,2.51,4.496,4.914c0,2.824-0.942,5.019-4.078,5.019
		c-2.091,0-3.764-1.358-5.017-2.926l-0.942,0.836c1.672,1.986,2.926,4.808,2.926,7.32c0,10.874-12.758,13.593-21.229,13.593
		c-4.178,0-8.154-0.314-9.826-0.733c-2.093-0.521-7.112,1.362-7.112,4.183c0,2.092,3.452,2.092,5.228,2.092H37.333z"/>
	<path clip-path="url(#SVGID_2_)" fill="#B93544" d="M59.724,24.829c-3.087,0.168-7.26,0.572-7.26,4.628
		c0,1.943,1.029,4.516,3.314,4.516c2.629,0,3.946-1.771,3.946-3.316V24.829z M59.724,19.625c0-2.973,0.226-4.745-4.002-4.745
		c-0.63,0-3.029,0.345-3.029,1.374c0,0.285,0.287,0.743,0.57,1.2c0.286,0.457,0.571,0.972,0.571,1.428
		c0,2.401-1.201,4.002-3.658,4.002c-2,0-3.656-1.315-3.656-3.431c0-4.514,6.173-6.056,9.714-6.056
		c7.376,0,10.519,2.114,10.519,3.771v13.891c0,1.2,0.056,2.629,1.658,2.629c0.401,0,1.2-0.401,1.43-0.802l1.029,1.087
		c-1.544,2.4-3.201,3.259-5.946,3.259c-2.458,0-4.517-2.115-5.085-3.945c-2.003,2.343-4.917,3.945-8.005,3.945
		c-3.085,0-6.686-1.773-6.686-5.316c0-6.686,9.49-8.346,14.576-8.459V19.625z"/>
	<path clip-path="url(#SVGID_2_)" fill="#B93544" d="M91.924,17.454c0-1.544-1.315-2.573-2.86-2.573c-2.972,0-5.83,3.888-5.83,5.719
		v8.858c0,2.515,2.858,6.289,5.889,6.289c2.685,0,2.801-2.115,2.801-4.346V17.454z M75.346,2.566h-3.198V0.965h3.198
		c2.63,0,5.261-0.4,7.888-0.574v17.12c1.659-2.571,3.774-4.116,6.919-4.116c5.944,0,10.744,5.66,10.744,11.488
		c0,5.946-4.345,12.35-10.744,12.35c-3.318,0-5.373-1.773-6.804-4.516h-0.115v3.657H72.033v-1.6h3.313V2.566z"/>
	<path clip-path="url(#SVGID_2_)" fill="#B93544" d="M119.504,22.884v-5.601c0-1.486-1.259-2.399-4-2.399
		c-2.461,0-3.485,1.084-3.485,2.628v5.372H119.504z M112.019,24.37v7.375c0,2.972,1.654,4.001,4.626,4.001
		c4.518,0,8.062-2.229,9.377-6.688l1.314,0.457c-1.486,5.315-5.774,7.718-11.09,7.718c-7.088,0-13.49-4.002-13.49-11.778
		c0-7.772,6.858-12.059,13.376-12.059c5.657,0,11.089,3.946,11.089,9.889c0,1.372-1.771,1.085-2.688,1.085H112.019z"/>
	<path clip-path="url(#SVGID_2_)" fill="#B93544" d="M131.086,7.392h3.377c1.486,0,3.026-0.399,4.514-0.571v7.376h4.345v1.6h-4.345
		v15.49c0,1.145-0.286,2.917,1.371,2.917c2.228,0,2.632-1.772,2.974-3.604l1.654,0.344c-0.97,4.63-4.056,6.289-8.572,6.289
		c-5.318,0-5.318-2.287-5.318-5.146v-16.29h-3.485v-1.6h3.485V7.392z"/>
	<path clip-path="url(#SVGID_2_)" fill="#B93544" d="M149.219,7.392h3.372c1.489,0,3.033-0.399,4.516-0.571v7.376h4.345v1.6h-4.345
		v15.49c0,1.145-0.286,2.917,1.374,2.917c2.228,0,2.632-1.772,2.971-3.604l1.657,0.344c-0.967,4.63-4.056,6.289-8.572,6.289
		c-5.318,0-5.318-2.287-5.318-5.146v-16.29h-3.487v-1.6h3.487V7.392z"/>
	<path clip-path="url(#SVGID_2_)" fill="#B93544" d="M175.807,6.76c0,2.173-1.886,4.116-4.059,4.116
		c-2.172,0-4.115-1.943-4.115-4.116c0-2.171,2.004-4.059,4.115-4.059C173.862,2.701,175.807,4.589,175.807,6.76 M167.975,15.841
		h-3.942v-1.602h3.942c2.629,0,5.259-0.227,7.888-0.227v20.762h3.488v1.6h-15.09v-1.6h3.714V15.841z"/>
</g>
</svg>
